<svg width="13" height="14" viewBox="0 0 13 14" fill="none" xmlns="http://www.w3.org/2000/svg">
<path id="Union" fill-rule="evenodd" clip-rule="evenodd" d="M13 2.27487C13 1.67148 12.7603 1.09281 12.3337 0.666138H12.3341C11.9074 0.23961 11.3288 0 10.7255 0C10.1222 0 9.54363 0.23961 9.11697 0.666138L0.110726 9.67086C0.0755352 9.70614 0.0476432 9.74801 0.0286443 9.79408C0.00964533 9.84014 -8.7835e-05 9.8895 5.97225e-07 9.93933V12.241C5.97225e-07 12.4422 0.0799025 12.6351 0.222128 12.7773C0.364353 12.9195 0.557252 12.9994 0.75839 12.9994H3.06048C3.16098 12.9995 3.25741 12.9597 3.32857 12.8887L10.7248 5.49249L10.7252 5.49293L11.5295 4.68866L11.5291 4.68822L12.3337 3.8836C12.7603 3.45693 13 2.87825 13 2.27487ZM10.7249 3.8841L11.5294 3.07971C11.7346 2.87454 11.8537 2.5987 11.8622 2.30863C11.8708 2.01856 11.7681 1.7362 11.5753 1.51932L11.5298 1.47079V1.47003C11.3246 1.26485 11.0487 1.14586 10.7586 1.1374C10.4686 1.12894 10.1862 1.23166 9.9694 1.42453L9.92048 1.47003L9.11569 2.27485L10.7249 3.8841ZM9.92064 4.68834L8.31144 3.07914L1.18195 10.2089C1.16787 10.223 1.1567 10.2398 1.14909 10.2582C1.14148 10.2766 1.13757 10.2963 1.13758 10.3163V11.7109C1.13758 11.7947 1.20546 11.8626 1.28926 11.8626H2.68318C2.70313 11.8626 2.72288 11.8586 2.74129 11.8509C2.75971 11.8432 2.77643 11.832 2.79049 11.8179L9.92064 4.68834ZM6.69791 11.8763H12.8409C12.942 11.8763 12.9925 11.9268 12.9925 12.0279V12.8622C12.9925 12.9633 12.942 13.0138 12.8409 13.0138H6.69791C6.59679 13.0138 6.54623 12.9633 6.54623 12.8622V12.0279C6.54623 11.9268 6.59679 11.8763 6.69791 11.8763ZM12.8406 9.60109H9.73123C9.63011 9.60109 9.57956 9.65165 9.57956 9.75277V10.587C9.57956 10.6881 9.63011 10.7387 9.73123 10.7387H12.8406C12.9417 10.7387 12.9923 10.6881 12.9923 10.587V9.75277C12.9923 9.65165 12.9417 9.60109 12.8406 9.60109Z" fill="currentColor"/>
</svg>
